<?xml version="1.0" encoding="iso-8859-1"?>
<!-- Generator: Adobe Illustrator 17.0.0, SVG Export Plug-In . SVG Version: 6.00 Build 0)  -->
<!DOCTYPE svg PUBLIC "-//W3C//DTD SVG 1.1//EN" "http://www.w3.org/Graphics/SVG/1.1/DTD/svg11.dtd">
<svg version="1.1" id="Capa_1" xmlns="http://www.w3.org/2000/svg" xmlns:xlink="http://www.w3.org/1999/xlink" x="0px" y="0px"
	 width="68.875px" height="34.5px" viewBox="0 0 68.875 34.5" style="enable-background:new 0 0 68.875 34.5;" xml:space="preserve"
	>
<g>
	<g>
		<g>
			<linearGradient id="SVGID_1_" gradientUnits="userSpaceOnUse" x1="0.9541" y1="20.405" x2="21.7403" y2="20.405">
				<stop  offset="0" style="stop-color:#29ABE2"/>
				<stop  offset="0.1811" style="stop-color:#29A9E2"/>
				<stop  offset="0.254" style="stop-color:#27A2E4"/>
				<stop  offset="0.3074" style="stop-color:#2496E6"/>
				<stop  offset="0.3513" style="stop-color:#2084E9"/>
				<stop  offset="0.3894" style="stop-color:#1A6EEC"/>
				<stop  offset="0.4233" style="stop-color:#1452F1"/>
				<stop  offset="0.4544" style="stop-color:#0C30F7"/>
				<stop  offset="0.4822" style="stop-color:#030BFD"/>
				<stop  offset="0.4892" style="stop-color:#0000FF"/>
				<stop  offset="0.7022" style="stop-color:#0071FF"/>
				<stop  offset="0.9047" style="stop-color:#00D7FF"/>
				<stop  offset="0.9944" style="stop-color:#00FFFF"/>
			</linearGradient>
			<path style="fill:url(#SVGID_1_);" d="M18.203,32.852V11.4h-5.069c-2.334,0-4.316,0.854-5.944,2.562
				c-1.629,1.708-2.443,3.829-2.443,6.364s0.802,4.649,2.407,6.343c1.605,1.695,3.562,2.542,5.872,2.542
				c1.386,0,2.662-0.36,3.829-1.081v4.042c-1.531,0.561-2.869,0.841-4.011,0.841c-3.282,0-6.084-1.221-8.406-3.662
				s-3.482-5.449-3.482-9.025c0-2.028,0.425-3.962,1.276-5.804c1.021-2.134,2.455-3.788,4.303-4.963
				c1.847-1.173,3.889-1.761,6.126-1.761h9.08v25.054H18.203z"/>
			<path style="fill:none;stroke:#1B1464;stroke-miterlimit:10;" d="M18.203,32.852V11.4h-5.069c-2.334,0-4.316,0.854-5.944,2.562
				c-1.629,1.708-2.443,3.829-2.443,6.364s0.802,4.649,2.407,6.343c1.605,1.695,3.562,2.542,5.872,2.542
				c1.386,0,2.662-0.36,3.829-1.081v4.042c-1.531,0.561-2.869,0.841-4.011,0.841c-3.282,0-6.084-1.221-8.406-3.662
				s-3.482-5.449-3.482-9.025c0-2.028,0.425-3.962,1.276-5.804c1.021-2.134,2.455-3.788,4.303-4.963
				c1.847-1.173,3.889-1.761,6.126-1.761h9.08v25.054H18.203z"/>
		</g>
		<g>
			<linearGradient id="SVGID_2_" gradientUnits="userSpaceOnUse" x1="23.6729" y1="20.325" x2="45.6616" y2="20.325">
				<stop  offset="0" style="stop-color:#29ABE2"/>
				<stop  offset="0.1811" style="stop-color:#29A9E2"/>
				<stop  offset="0.254" style="stop-color:#27A2E4"/>
				<stop  offset="0.3074" style="stop-color:#2496E6"/>
				<stop  offset="0.3513" style="stop-color:#2084E9"/>
				<stop  offset="0.3894" style="stop-color:#1A6EEC"/>
				<stop  offset="0.4233" style="stop-color:#1452F1"/>
				<stop  offset="0.4544" style="stop-color:#0C30F7"/>
				<stop  offset="0.4822" style="stop-color:#030BFD"/>
				<stop  offset="0.4892" style="stop-color:#0000FF"/>
				<stop  offset="0.7022" style="stop-color:#0071FF"/>
				<stop  offset="0.9047" style="stop-color:#00D7FF"/>
				<stop  offset="0.9944" style="stop-color:#00FFFF"/>
			</linearGradient>
			<path style="fill:url(#SVGID_2_);" d="M42.416,14.842c-2.066-2.455-4.363-3.682-6.891-3.682c-2.261,0-4.207,0.907-5.835,2.722
				c-1.629,1.815-2.443,3.976-2.443,6.484c0,2.481,0.814,4.609,2.443,6.383c1.628,1.775,3.574,2.662,5.835,2.662
				c1.726,0,3.288-0.507,4.686-1.521c1.398-1.014,2.389-2.388,2.973-4.122l2.479,2.602c-2.213,4.563-5.422,6.844-9.627,6.844
				c-3.477,0-6.381-1.174-8.715-3.522c-2.431-2.427-3.646-5.536-3.646-9.325c0-3.655,1.154-6.724,3.464-9.206
				s5.154-3.722,8.533-3.722c4.158,0,7.367,1.748,9.626,5.243L42.416,14.842z"/>
			<path style="fill:none;stroke:#1B1464;stroke-miterlimit:10;" d="M42.416,14.842c-2.066-2.455-4.363-3.682-6.891-3.682
				c-2.261,0-4.207,0.907-5.835,2.722c-1.629,1.815-2.443,3.976-2.443,6.484c0,2.481,0.814,4.609,2.443,6.383
				c1.628,1.775,3.574,2.662,5.835,2.662c1.726,0,3.288-0.507,4.686-1.521c1.398-1.014,2.389-2.388,2.973-4.122l2.479,2.602
				c-2.213,4.563-5.422,6.844-9.627,6.844c-3.477,0-6.381-1.174-8.715-3.522c-2.431-2.427-3.646-5.536-3.646-9.325
				c0-3.655,1.154-6.724,3.464-9.206s5.154-3.722,8.533-3.722c4.158,0,7.367,1.748,9.626,5.243L42.416,14.842z"/>
		</g>
		<g>
			<linearGradient id="SVGID_3_" gradientUnits="userSpaceOnUse" x1="46.4273" y1="17.0229" x2="67.2134" y2="17.0229">
				<stop  offset="0" style="stop-color:#29ABE2"/>
				<stop  offset="0.1811" style="stop-color:#29A9E2"/>
				<stop  offset="0.254" style="stop-color:#27A2E4"/>
				<stop  offset="0.3074" style="stop-color:#2496E6"/>
				<stop  offset="0.3513" style="stop-color:#2084E9"/>
				<stop  offset="0.3894" style="stop-color:#1A6EEC"/>
				<stop  offset="0.4233" style="stop-color:#1452F1"/>
				<stop  offset="0.4544" style="stop-color:#0C30F7"/>
				<stop  offset="0.4822" style="stop-color:#030BFD"/>
				<stop  offset="0.4892" style="stop-color:#0000FF"/>
				<stop  offset="0.7022" style="stop-color:#0071FF"/>
				<stop  offset="0.9047" style="stop-color:#00D7FF"/>
				<stop  offset="0.9944" style="stop-color:#00FFFF"/>
			</linearGradient>
			<path style="fill:url(#SVGID_3_);" d="M67.213,20.325c0,3.576-1.161,6.557-3.482,8.945c-2.322,2.389-5.124,3.582-8.405,3.582
				h-8.898V1.194h3.537v6.604h5.543c2.236,0,4.279,0.587,6.127,1.761c1.847,1.175,3.27,2.829,4.267,4.963
				C66.776,16.363,67.213,18.297,67.213,20.325z M49.964,28.81h5.179c2.334,0,4.29-0.787,5.871-2.361
				c1.58-1.574,2.37-3.615,2.37-6.124c0-2.535-0.809-4.656-2.425-6.364c-1.617-1.708-3.592-2.562-5.926-2.562h-5.069V28.81z"/>
			<path style="fill:none;stroke:#1B1464;stroke-miterlimit:10;" d="M67.213,20.325c0,3.576-1.161,6.557-3.482,8.945
				c-2.322,2.389-5.124,3.582-8.405,3.582h-8.898V1.194h3.537v6.604h5.543c2.236,0,4.279,0.587,6.127,1.761
				c1.847,1.175,3.27,2.829,4.267,4.963C66.776,16.363,67.213,18.297,67.213,20.325z M49.964,28.81h5.179
				c2.334,0,4.29-0.787,5.871-2.361c1.58-1.574,2.37-3.615,2.37-6.124c0-2.535-0.809-4.656-2.425-6.364
				c-1.617-1.708-3.592-2.562-5.926-2.562h-5.069V28.81z"/>
		</g>
	</g>
</g>
</svg>
